<svg xmlns="http://www.w3.org/2000/svg" width="1200" height="700" viewBox="0 0 1200 700" role="img" aria-labelledby="title desc"><title id="title">In 2020, fewer than one in ten people worldwide were 65 or older</title><desc id="desc">A one-hundred-person grid showing nine older adults, sixty-five working-age adults, and twenty-six people under age 15, plus regional comparisons.</desc><rect width="1200" height="700" fill="#f7fbfc"/><style>text{font-family:Inter, Arial, sans-serif;fill:#172329}.t{font-size:40px;font-weight:760}.s{font-size:18px;fill:#53636b}.big{font-size:52px;font-weight:780}.lab{font-size:17px;font-weight:700}.small{font-size:14px;fill:#647178}.src{font-size:13px;fill:#66747a}</style><text class="t" x="70" y="66">In 2020, fewer than 1 in 10 people worldwide</text><text class="t" x="70" y="113">were age 65 or older</text><text class="s" x="70" y="150">Global population composition and the uneven geography of aging</text><rect x="55" y="188" width="690" height="438" rx="10" fill="#ffffff" stroke="#d6e0e3"/><rect x="770" y="188" width="375" height="438" rx="10" fill="#ffffff" stroke="#d6e0e3"/><text class="lab" x="88" y="226">Imagine the world as 100 people</text><circle cx="100" cy="270" r="11" fill="#c54f5d"/><circle cx="153" cy="270" r="11" fill="#c54f5d"/><circle cx="206" cy="270" r="11" fill="#c54f5d"/><circle cx="259" cy="270" r="11" fill="#c54f5d"/><circle cx="312" cy="270" r="11" fill="#c54f5d"/><circle cx="365" cy="270" r="11" fill="#c54f5d"/><circle cx="418" cy="270" r="11" fill="#c54f5d"/><circle cx="471" cy="270" r="11" fill="#c54f5d"/><circle cx="524" cy="270" r="11" fill="#c54f5d"/><circle cx="577" cy="270" r="11" fill="#397aa8"/><circle cx="100" cy="301" r="11" fill="#397aa8"/><circle cx="153" cy="301" r="11" fill="#397aa8"/><circle cx="206" cy="301" r="11" fill="#397aa8"/><circle cx="259" cy="301" r="11" fill="#397aa8"/><circle cx="312" cy="301" r="11" fill="#397aa8"/><circle cx="365" cy="301" r="11" fill="#397aa8"/><circle cx="418" cy="301" r="11" fill="#397aa8"/><circle cx="471" cy="301" r="11" fill="#397aa8"/><circle cx="524" cy="301" r="11" fill="#397aa8"/><circle cx="577" cy="301" r="11" fill="#397aa8"/><circle cx="100" cy="332" r="11" fill="#397aa8"/><circle cx="153" cy="332" r="11" fill="#397aa8"/><circle cx="206" cy="332" r="11" fill="#397aa8"/><circle cx="259" cy="332" r="11" fill="#397aa8"/><circle cx="312" cy="332" r="11" fill="#397aa8"/><circle cx="365" cy="332" r="11" fill="#397aa8"/><circle cx="418" cy="332" r="11" fill="#397aa8"/><circle cx="471" cy="332" r="11" fill="#397aa8"/><circle cx="524" cy="332" r="11" fill="#397aa8"/><circle cx="577" cy="332" r="11" fill="#397aa8"/><circle cx="100" cy="363" r="11" fill="#397aa8"/><circle cx="153" cy="363" r="11" fill="#397aa8"/><circle cx="206" cy="363" r="11" fill="#397aa8"/><circle cx="259" cy="363" r="11" fill="#397aa8"/><circle cx="312" cy="363" r="11" fill="#397aa8"/><circle cx="365" cy="363" r="11" fill="#397aa8"/><circle cx="418" cy="363" r="11" fill="#397aa8"/><circle cx="471" cy="363" r="11" fill="#397aa8"/><circle cx="524" cy="363" r="11" fill="#397aa8"/><circle cx="577" cy="363" r="11" fill="#397aa8"/><circle cx="100" cy="394" r="11" fill="#397aa8"/><circle cx="153" cy="394" r="11" fill="#397aa8"/><circle cx="206" cy="394" r="11" fill="#397aa8"/><circle cx="259" cy="394" r="11" fill="#397aa8"/><circle cx="312" cy="394" r="11" fill="#397aa8"/><circle cx="365" cy="394" r="11" fill="#397aa8"/><circle cx="418" cy="394" r="11" fill="#397aa8"/><circle cx="471" cy="394" r="11" fill="#397aa8"/><circle cx="524" cy="394" r="11" fill="#397aa8"/><circle cx="577" cy="394" r="11" fill="#397aa8"/><circle cx="100" cy="425" r="11" fill="#397aa8"/><circle cx="153" cy="425" r="11" fill="#397aa8"/><circle cx="206" cy="425" r="11" fill="#397aa8"/><circle cx="259" cy="425" r="11" fill="#397aa8"/><circle cx="312" cy="425" r="11" fill="#397aa8"/><circle cx="365" cy="425" r="11" fill="#397aa8"/><circle cx="418" cy="425" r="11" fill="#397aa8"/><circle cx="471" cy="425" r="11" fill="#397aa8"/><circle cx="524" cy="425" r="11" fill="#397aa8"/><circle cx="577" cy="425" r="11" fill="#397aa8"/><circle cx="100" cy="456" r="11" fill="#397aa8"/><circle cx="153" cy="456" r="11" fill="#397aa8"/><circle cx="206" cy="456" r="11" fill="#397aa8"/><circle cx="259" cy="456" r="11" fill="#397aa8"/><circle cx="312" cy="456" r="11" fill="#397aa8"/><circle cx="365" cy="456" r="11" fill="#397aa8"/><circle cx="418" cy="456" r="11" fill="#397aa8"/><circle cx="471" cy="456" r="11" fill="#397aa8"/><circle cx="524" cy="456" r="11" fill="#397aa8"/><circle cx="577" cy="456" r="11" fill="#397aa8"/><circle cx="100" cy="487" r="11" fill="#397aa8"/><circle cx="153" cy="487" r="11" fill="#397aa8"/><circle cx="206" cy="487" r="11" fill="#397aa8"/><circle cx="259" cy="487" r="11" fill="#397aa8"/><circle cx="312" cy="487" r="11" fill="#e0b34a"/><circle cx="365" cy="487" r="11" fill="#e0b34a"/><circle cx="418" cy="487" r="11" fill="#e0b34a"/><circle cx="471" cy="487" r="11" fill="#e0b34a"/><circle cx="524" cy="487" r="11" fill="#e0b34a"/><circle cx="577" cy="487" r="11" fill="#e0b34a"/><circle cx="100" cy="518" r="11" fill="#e0b34a"/><circle cx="153" cy="518" r="11" fill="#e0b34a"/><circle cx="206" cy="518" r="11" fill="#e0b34a"/><circle cx="259" cy="518" r="11" fill="#e0b34a"/><circle cx="312" cy="518" r="11" fill="#e0b34a"/><circle cx="365" cy="518" r="11" fill="#e0b34a"/><circle cx="418" cy="518" r="11" fill="#e0b34a"/><circle cx="471" cy="518" r="11" fill="#e0b34a"/><circle cx="524" cy="518" r="11" fill="#e0b34a"/><circle cx="577" cy="518" r="11" fill="#e0b34a"/><circle cx="100" cy="549" r="11" fill="#e0b34a"/><circle cx="153" cy="549" r="11" fill="#e0b34a"/><circle cx="206" cy="549" r="11" fill="#e0b34a"/><circle cx="259" cy="549" r="11" fill="#e0b34a"/><circle cx="312" cy="549" r="11" fill="#e0b34a"/><circle cx="365" cy="549" r="11" fill="#e0b34a"/><circle cx="418" cy="549" r="11" fill="#e0b34a"/><circle cx="471" cy="549" r="11" fill="#e0b34a"/><circle cx="524" cy="549" r="11" fill="#e0b34a"/><circle cx="577" cy="549" r="11" fill="#e0b34a"/><text class="big" x="88" y="595" fill="#c54f5d">9.3</text><text class="lab" x="180" y="579">people age 65+</text><text class="small" x="180" y="600">versus 65.2 working-age and 25.5 under age 15</text><text class="lab" x="802" y="226">Aging is not evenly distributed</text><text class="small" x="805" y="265">European Union</text><rect x="805" y="276" width="236.9" height="24" fill="#a53d50"/><text class="lab" x="1049.9" y="296">20.8%</text><text class="small" x="805" y="329">High income</text><rect x="805" y="340" width="212.6" height="24" fill="#bd5d4b"/><text class="lab" x="1025.6" y="360">18.6%</text><text class="small" x="805" y="393">World</text><rect x="805" y="404" width="106.2" height="24" fill="#397aa8"/><text class="lab" x="919.2" y="424">9.3%</text><text class="small" x="805" y="457">Low income</text><rect x="805" y="468" width="37.2" height="24" fill="#62a58c"/><text class="lab" x="850.2" y="488">3.3%</text><text class="small" x="805" y="521">Sub-Saharan Africa</text><rect x="805" y="532" width="34.4" height="24" fill="#62a58c"/><text class="lab" x="847.4" y="552">3.0%</text><text class="small" x="802" y="590">Share of population age 65+, 2020</text><text class="src" x="70" y="665">Source: World Bank Data by Indicators, health.csv. Composition uses the World aggregate; regional bars use 2020 aggregate values.</text></svg>